<?xml version="1.0" encoding="UTF-8"?><svg id="b" xmlns="http://www.w3.org/2000/svg" viewBox="0 0 24 24"><g id="c"><path d="m0,0h24v24H0V0Z" style="fill:#1f2937;"/><path d="m18.36,6.44H5.64v11.13l7.39-7.39c.31-.31.81-.31,1.12,0l4.21,4.22v-7.96Zm-14.31-.8c0-.43.35-.79.79-.79h14.32c.44,0,.79.35.79.79v12.73c0,.43-.35.79-.79.79H4.84c-.44,0-.79-.35-.79-.79V5.63Zm4.77,5.57c-.88,0-1.59-.71-1.59-1.59s.71-1.59,1.59-1.59,1.59.71,1.59,1.59-.71,1.59-1.59,1.59Z" style="fill:#d1d5db;"/><path d="m21.54,3.26h-3.18s0-1.59,0-1.59h3.87c.5,0,.9.4.9.9v3.87h-1.59s0-3.18,0-3.18Z" style="fill:#14b8a6;"/><path d="m2.46,20.74h3.18s0,1.59,0,1.59H1.77c-.5,0-.9-.4-.9-.9v-3.87h1.59s0,3.18,0,3.18Z" style="fill:#14b8a6;"/></g></svg>